Coordinates
version=1
nRows=49
nColumns=12
inDegrees=yes

Units are S.I. units (second, meters, Newtons, ...)
Angles are in degrees

endheader
time	SC_y	SC_z	SC_x	AC_y	AC_z	AC_x	GH_y	GH_z	GH_yy	EL_x	PS_y
       0.0              -23.59          39.61          51.62          60.85         -3.227          9.162         -123.2          23.21          107.7          49.93          96.57
   0.02443              -23.59          39.61          51.63          60.85         -3.229          9.159         -123.2          23.22          107.7          49.93          96.55
   0.04887               -23.6          39.61          51.63          60.85         -3.232          9.156         -123.2          23.22          107.7          49.93          96.54
    0.0733               -23.6           39.6          51.63          60.85         -3.234          9.152         -123.2          23.23          107.7          49.93          96.52
   0.09774              -23.61           39.6          51.64          60.85         -3.237          9.149         -123.2          23.24          107.7          49.93          96.51
    0.1222              -23.62          39.59          51.64          60.84          -3.24          9.145         -123.2          23.25          107.6          49.93          96.49
    0.1466              -23.62          39.59          51.65          60.84         -3.244           9.14         -123.2          23.26          107.6          49.93          96.47
     0.171              -23.63          39.58          51.65          60.84         -3.247          9.136         -123.2          23.28          107.6          49.93          96.45
    0.1955              -23.64          39.58          51.65          60.84         -3.251          9.131         -123.2          23.29          107.6          49.94          96.43
    0.2199              -23.65          39.57          51.66          60.84         -3.255          9.126         -123.2           23.3          107.6          49.94          96.41
    0.2443              -23.66          39.56          51.66          60.83         -3.259           9.12         -123.2          23.32          107.6          49.94          96.39
    0.2688              -23.67          39.56          51.67          60.83         -3.264          9.114         -123.2          23.33          107.6          49.94          96.36
    0.2932              -23.68          39.55          51.68          60.83         -3.269          9.107         -123.2          23.35          107.6          49.94          96.33
    0.3177              -23.69          39.54          51.68          60.82         -3.274            9.1         -123.2          23.37          107.6          49.94           96.3
    0.3421               -23.7          39.53          51.69          60.82          -3.28          9.093         -123.2          23.39          107.6          49.94          96.27
    0.3665              -23.71          39.52           51.7          60.82         -3.286          9.084         -123.2          23.41          107.6          49.94          96.23
     0.391              -23.73          39.51           51.7          60.81         -3.293          9.075         -123.2          23.43          107.6          49.94           96.2
    0.4154              -23.74           39.5          51.71          60.81         -3.301          9.065         -123.2          23.46          107.6          49.94          96.15
    0.4398              -23.76          39.49          51.72           60.8         -3.309          9.055         -123.2          23.48          107.5          49.94          96.11
    0.4643              -23.78          39.47          51.73           60.8         -3.318          9.043         -123.2          23.51          107.5          49.95          96.06
    0.4887               -23.8          39.46          51.75          60.79         -3.328           9.03         -123.2          23.55          107.5          49.95           96.0
    0.5131              -23.82          39.44          51.76          60.78         -3.338          9.016         -123.2          23.58          107.5          49.95          95.94
    0.5376              -23.85          39.42          51.77          60.77          -3.35            9.0         -123.2          23.62          107.5          49.95          95.88
     0.562              -23.88           39.4          51.79          60.77         -3.364          8.983         -123.2          23.67          107.5          49.95           95.8
    0.5864              -23.91          39.38          51.81          60.76         -3.378          8.963         -123.2          23.72          107.4          49.95          95.72
    0.6109              -23.94          39.35          51.83          60.75         -3.395          8.942         -123.2          23.77          107.4          49.96          95.63
    0.6353              -23.98          39.32          51.85          60.74         -3.413          8.918         -123.2          23.84          107.4          49.96          95.53
    0.6597              -24.03          39.29          51.87          60.72         -3.434           8.89         -123.2          23.91          107.3          49.96          95.41
    0.6842              -24.08          39.25           51.9          60.71         -3.457           8.86         -123.2          23.98          107.3          49.97          95.28
    0.7086              -24.13          39.21          51.94          60.69         -3.484          8.825         -123.2          24.07          107.3          49.97          95.13
     0.733               -24.2          39.16          51.97          60.67         -3.514          8.785         -123.2          24.18          107.2          49.98          94.96
    0.7575              -24.27          39.11          52.01          60.65         -3.549          8.739         -123.2          24.29          107.2          49.98          94.77
    0.7819              -24.35          39.04          52.06          60.62         -3.589          8.687         -123.2          24.43          107.1          49.99          94.54
    0.8063              -24.45          38.97          52.12          60.59         -3.636          8.625         -123.2          24.58          107.0          49.99          94.28
    0.8308              -24.57          38.89          52.18          60.56          -3.69          8.554         -123.2          24.77          107.0           50.0          93.98
    0.8552              -24.71          38.78          52.26          60.52         -3.755          8.469         -123.2          24.99          106.9          50.01          93.62
    0.8797              -24.87          38.66          52.35          60.47         -3.831          8.369         -123.2          25.24          106.7          50.02          93.19
    0.9041              -25.06          38.52          52.47          60.41         -3.923          8.248         -123.2          25.55          106.6          50.04          92.68
    0.9285               -25.3          38.35           52.6          60.34         -4.034          8.102         -123.2          25.93          106.4          50.05          92.06
     0.953              -25.58          38.13          52.76          60.26         -4.169          7.925         -123.2          26.38          106.2          50.08          91.31
    0.9774              -25.94          37.87          52.96          60.15         -4.336          7.705         -123.2          26.94          106.0           50.1          90.37
     1.002              -26.38          37.54          53.22          60.02         -4.545          7.431         -123.2          27.65          105.6          50.13          89.21
     1.026              -26.94          37.13          53.53          59.85         -4.808          7.086         -123.2          28.53          105.2          50.17          87.74
     1.051              -27.64           36.6          53.94          59.64         -5.141          6.647         -123.3          29.66          104.7          50.22          85.88
     1.075              -28.55          35.93          54.45          59.37         -5.569          6.086         -123.3           31.1          104.1          50.29          83.49
       1.1              -29.71          35.07          55.12          59.03         -6.117          5.366         -123.3          32.94          103.2          50.37          80.43
     1.124              -31.19          33.97          55.96          58.58         -6.818          4.445         -123.4           35.3          102.2          50.48          76.52
     1.148              -33.06          32.58          57.02          58.03         -7.699          3.288         -123.4          38.27          100.8          50.61           71.6
     1.173              -35.33           30.9          58.32          57.35         -8.772          1.878         -123.5          41.88          99.15          50.78          65.61
